<svg width="20" height="20" viewBox="0 0 20 20" fill="none" xmlns="http://www.w3.org/2000/svg">
<path d="M10 3.872C11.996 3.872 12.2327 3.87947 13.0214 3.9156C15.0472 4.0078 15.9935 4.96903 16.0857 6.97994C16.1218 7.76798 16.1287 8.0047 16.1287 10.0007C16.1287 11.9972 16.1212 12.2333 16.0857 13.0214C15.9929 15.0304 15.0491 15.9935 13.0214 16.0857C12.2327 16.1219 11.9972 16.1293 10 16.1293C8.00405 16.1293 7.76733 16.1219 6.97928 16.0857C4.94844 15.9929 4.00715 15.0273 3.91495 13.0208C3.87882 12.2327 3.87134 11.9966 3.87134 10C3.87134 8.00408 3.87944 7.76798 3.91495 6.97931C4.00777 4.96903 4.95155 4.00718 6.97928 3.91498C7.76795 3.87947 8.00405 3.872 10 3.872ZM10 2.52454C7.96979 2.52454 7.71562 2.53326 6.91823 2.56939C4.20338 2.69398 2.69457 4.2003 2.56998 6.91764C2.53323 7.71565 2.52451 7.96982 2.52451 10C2.52451 12.0303 2.53323 12.2851 2.56936 13.0824C2.69395 15.7973 4.20026 17.3061 6.91761 17.4307C7.71562 17.4668 7.96979 17.4755 10 17.4755C12.0302 17.4755 12.285 17.4668 13.0824 17.4307C15.7948 17.3061 17.3073 15.7998 17.43 13.0824C17.4668 12.2851 17.4755 12.0303 17.4755 10C17.4755 7.96982 17.4668 7.71565 17.4307 6.91826C17.3086 4.2059 15.8004 2.6946 13.083 2.57001C12.285 2.53326 12.0302 2.52454 10 2.52454V2.52454ZM10 6.16137C7.88008 6.16137 6.16134 7.88011 6.16134 10C6.16134 12.12 7.88008 13.8393 10 13.8393C12.1199 13.8393 13.8387 12.1206 13.8387 10C13.8387 7.88011 12.1199 6.16137 10 6.16137ZM10 12.4919C8.62389 12.4919 7.50818 11.3768 7.50818 10C7.50818 8.62392 8.62389 7.50821 10 7.50821C11.3761 7.50821 12.4918 8.62392 12.4918 10C12.4918 11.3768 11.3761 12.4919 10 12.4919ZM13.9907 5.11293C13.4948 5.11293 13.093 5.51474 13.093 6.00999C13.093 6.50524 13.4948 6.90705 13.9907 6.90705C14.4859 6.90705 14.8871 6.50524 14.8871 6.00999C14.8871 5.51474 14.4859 5.11293 13.9907 5.11293Z" fill="#8BAC3E"/>
</svg>
