<svg width="12" height="11" viewBox="0 0 12 11" fill="none" xmlns="http://www.w3.org/2000/svg">
<g clip-path="url(#clip0_18_168)">
<path d="M11.3362 4.08243C11.2541 3.82962 11.0087 3.65586 10.6631 3.60566L7.92181 3.20728L6.69589 0.723295C6.54128 0.410063 6.3002 0.230408 6.03443 0.230408C5.76865 0.230408 5.52757 0.410063 5.37298 0.723295L4.1471 3.20726L1.40582 3.60564C1.06012 3.65584 0.814772 3.82962 0.732627 4.08238C0.650504 4.33517 0.74687 4.61996 0.996968 4.86377L2.98057 6.79725L2.5123 9.5275C2.45072 9.88663 2.55529 10.1014 2.65389 10.2183C2.7692 10.3551 2.93743 10.4304 3.12758 10.4304C3.27134 10.4304 3.42444 10.3883 3.58255 10.3051L6.03443 9.01604L8.4863 10.3051C8.64445 10.3882 8.79754 10.4304 8.94132 10.4304H8.94136C9.13153 10.4304 9.29975 10.3551 9.41507 10.2183C9.51364 10.1014 9.61823 9.88661 9.55664 9.52746L9.0883 6.79727L11.0719 4.86381C11.322 4.62 11.4184 4.33519 11.3362 4.08243V4.08243Z" fill="#FF8412"/>
</g>
<defs>
<clipPath id="clip0_18_168">
<rect width="10.6609" height="10.6609" fill="white" transform="translate(0.703979)"/>
</clipPath>
</defs>
</svg>
