<svg width="11" height="11" viewBox="0 0 11 11" fill="none" xmlns="http://www.w3.org/2000/svg">
<g clip-path="url(#clip0_18_176)">
<path d="M10.9712 4.08243C10.8891 3.82962 10.6437 3.65586 10.2981 3.60566L7.55682 3.20728L6.3309 0.723295C6.17629 0.410063 5.93521 0.230408 5.66944 0.230408C5.40366 0.230408 5.16258 0.410063 5.00799 0.723295L3.78211 3.20726L1.04083 3.60564C0.695132 3.65584 0.449781 3.82962 0.367637 4.08238C0.285514 4.33517 0.38188 4.61996 0.631977 4.86377L2.61558 6.79725L2.14731 9.5275C2.08573 9.88663 2.1903 10.1014 2.2889 10.2183C2.40421 10.3551 2.57244 10.4304 2.76259 10.4304C2.90634 10.4304 3.05945 10.3883 3.21756 10.3051L5.66944 9.01604L8.12131 10.3051C8.27946 10.3882 8.43255 10.4304 8.57632 10.4304H8.57637C8.76654 10.4304 8.93476 10.3551 9.05008 10.2183C9.14865 10.1014 9.25324 9.88661 9.19165 9.52746L8.72331 6.79727L10.7069 4.86381C10.957 4.62 11.0534 4.33519 10.9712 4.08243V4.08243Z" fill="#C9C9C9"/>
</g>
<defs>
<clipPath id="clip0_18_176">
<rect width="10.6609" height="10.6609" fill="white" transform="translate(0.338989)"/>
</clipPath>
</defs>
</svg>
